<svg width="60" height="9" viewBox="0 0 60 9" fill="none" xmlns="http://www.w3.org/2000/svg">
<rect width="60" height="9" fill="#1E1E1E"/>
<path d="M2.05333 7H0.357333V1.25067L0.096 0.749333H2.05867L3.04 2.776L3.97867 4.79733L3.71733 2.424V0.749333H5.41867V7H3.792L2.52267 4.53067L1.73867 2.984L2.05333 5.032V7ZM8.34125 6.472C8.49769 6.472 8.61681 6.408 8.69858 6.28C8.78392 6.14844 8.82658 5.96889 8.82658 5.74133V4.056C8.82658 3.36267 8.66303 3.016 8.33592 3.016C8.18303 3.016 8.06392 3.07822 7.97858 3.20267C7.89325 3.32711 7.85058 3.50311 7.85058 3.73067V5.464C7.85058 6.136 8.01414 6.472 8.34125 6.472ZM8.29858 7.112C7.48436 7.112 6.88881 6.92711 6.51192 6.55733C6.13503 6.18756 5.94658 5.59733 5.94658 4.78667C5.94658 3.98311 6.13681 3.37867 6.51725 2.97333C6.89769 2.56444 7.51636 2.36 8.37325 2.36C9.20881 2.36 9.81147 2.55556 10.1813 2.94667C10.5546 3.33422 10.7413 3.92267 10.7413 4.712C10.7413 5.52978 10.5439 6.13422 10.1493 6.52533C9.75814 6.91644 9.14125 7.112 8.29858 7.112ZM14.8902 6.55733L14.8422 6.616C14.8102 6.65156 14.7534 6.69778 14.6716 6.75467C14.5934 6.808 14.4974 6.86311 14.3836 6.92C14.2734 6.97333 14.124 7.01778 13.9356 7.05333C13.7507 7.09244 13.5516 7.112 13.3382 7.112C12.6165 7.112 12.0636 6.90044 11.6796 6.47733C11.2991 6.05422 11.1089 5.49422 11.1089 4.79733C11.1089 4.42044 11.1676 4.07733 11.2849 3.768C11.4022 3.45867 11.5622 3.20267 11.7649 3C11.9711 2.79378 12.2111 2.63556 12.4849 2.52533C12.7623 2.41156 13.0609 2.35467 13.3809 2.35467C13.9996 2.35467 14.4796 2.50222 14.8209 2.79733C14.8956 2.872 14.9329 2.90933 14.9329 2.90933L14.8529 4.16267L14.0956 4.168L13.7916 3.352C13.7631 3.34489 13.724 3.34133 13.6742 3.34133C13.3507 3.34133 13.1267 3.45333 13.0022 3.67733C12.8814 3.89778 12.8209 4.28178 12.8209 4.82933C12.8209 5.06756 12.8405 5.272 12.8796 5.44267C12.9187 5.60978 12.9631 5.736 13.0129 5.82133C13.0627 5.90311 13.1285 5.96711 13.2102 6.01333C13.2956 6.05956 13.3649 6.08622 13.4183 6.09333C13.4716 6.10044 13.5374 6.104 13.6156 6.104C13.7934 6.104 13.9747 6.08267 14.1596 6.04C14.348 5.99733 14.5027 5.928 14.6236 5.832L14.8902 6.55733ZM16.7109 7.112C16.2309 7.112 15.8949 6.968 15.7029 6.68C15.5144 6.392 15.4202 5.90489 15.4202 5.21867V3.40533H15.0522V2.664L15.6815 2.46667L16.2255 1.224H17.1642V2.46667H18.0389V3.40533H17.1482V5.38933C17.1482 5.67378 17.1891 5.86222 17.2709 5.95467C17.3527 6.04711 17.4789 6.09333 17.6495 6.09333C17.7242 6.09333 17.7918 6.08444 17.8522 6.06667C17.9127 6.04889 17.9624 6.024 18.0015 5.992V6.71733C17.9482 6.77067 17.8789 6.824 17.7935 6.87733C17.7082 6.92711 17.566 6.97867 17.3669 7.032C17.1713 7.08533 16.9527 7.112 16.7109 7.112ZM21.1177 6.29067C21.0964 6.34044 21.052 6.40622 20.9844 6.488C20.9204 6.56978 20.8351 6.66044 20.7284 6.76C20.6217 6.856 20.4902 6.93778 20.3338 7.00533C20.1773 7.07644 20.0191 7.112 19.8591 7.112C19.3577 7.112 18.9986 6.96267 18.7817 6.664C18.5684 6.36533 18.4618 5.86756 18.4618 5.17067V3.272L18.2751 3.08V2.46667H20.2111V5.50667C20.2075 5.66667 20.2342 5.78578 20.2911 5.864C20.348 5.93867 20.4511 5.976 20.6004 5.976C20.6218 5.976 20.6413 5.976 20.6591 5.976C20.6769 5.97244 20.6946 5.96889 20.7124 5.96533C20.7302 5.95822 20.7444 5.95289 20.7551 5.94933C20.7693 5.94578 20.7853 5.94044 20.8031 5.93333C20.8209 5.92267 20.8351 5.91378 20.8457 5.90667C20.8564 5.89956 20.8706 5.89067 20.8884 5.88C20.9062 5.86578 20.9186 5.85511 20.9258 5.848C20.9364 5.84089 20.9506 5.83022 20.9684 5.816C20.9897 5.79822 21.0057 5.78578 21.0164 5.77867V3.272L20.7284 3.08V2.46667H22.7604V7H21.2831L21.1177 6.29067ZM25.2168 7H23.4941V3.54933L23.1741 3.352V2.78133L24.3208 2.46667H25.2275V3.15467L25.2915 3.07467C25.3341 3.01778 25.3963 2.95022 25.4781 2.872C25.5635 2.79378 25.6577 2.71733 25.7608 2.64267C25.8639 2.56444 25.9866 2.49867 26.1288 2.44533C26.2746 2.38844 26.4168 2.36 26.5555 2.36C27.0426 2.36 27.3857 2.49333 27.5848 2.76C27.7875 3.02667 27.8888 3.47289 27.8888 4.09867C27.8888 4.12 27.8888 4.152 27.8888 4.19467C27.8852 4.23733 27.8835 4.27111 27.8835 4.296V7H26.1235V4.14133C26.1341 3.80711 25.9919 3.64 25.6968 3.64C25.6755 3.64 25.6541 3.64178 25.6328 3.64533C25.615 3.64889 25.5972 3.65244 25.5795 3.656C25.5652 3.65956 25.5475 3.66667 25.5261 3.67733C25.5083 3.68444 25.4923 3.69156 25.4781 3.69867C25.4639 3.70222 25.4479 3.71111 25.4301 3.72533C25.4123 3.736 25.3981 3.74489 25.3875 3.752C25.3768 3.75911 25.3608 3.77156 25.3395 3.78933C25.3217 3.80356 25.3075 3.81422 25.2968 3.82133C25.2897 3.82844 25.2755 3.84089 25.2541 3.85867C25.2363 3.87289 25.2239 3.88356 25.2168 3.89067V7ZM30.9513 4.24267C30.9513 3.79111 30.9282 3.47111 30.882 3.28267C30.8357 3.09422 30.7504 3 30.626 3C30.5193 3 30.4322 3.01956 30.3646 3.05867C30.2971 3.09422 30.2473 3.15289 30.2153 3.23467C30.1833 3.31289 30.162 3.39467 30.1513 3.48C30.1442 3.56178 30.1406 3.66667 30.1406 3.79467V4.24267H30.9513ZM30.5246 7.112C30.1264 7.112 29.7797 7.05156 29.4846 6.93067C29.1931 6.80978 28.962 6.64089 28.7913 6.424C28.6242 6.20711 28.5015 5.96356 28.4233 5.69333C28.3451 5.41956 28.306 5.11556 28.306 4.78133C28.306 3.98489 28.5086 3.38222 28.914 2.97333C29.3193 2.56444 29.8864 2.36 30.6153 2.36C31.3157 2.36 31.8171 2.52533 32.1193 2.856C32.4215 3.18311 32.5726 3.71111 32.5726 4.44V5.032H30.1353V5.13333C30.1353 5.34311 30.1566 5.51556 30.1993 5.65067C30.2455 5.78578 30.3113 5.88533 30.3966 5.94933C30.482 6.01333 30.5691 6.056 30.658 6.07733C30.7468 6.09867 30.8553 6.10933 30.9833 6.10933C31.1077 6.10933 31.2411 6.09333 31.3833 6.06133C31.5291 6.02933 31.6748 5.97956 31.8206 5.912C31.97 5.84444 32.0944 5.76444 32.194 5.672L32.5086 6.21067C32.3771 6.424 32.1833 6.60356 31.9273 6.74933C31.6748 6.89156 31.4313 6.98756 31.1966 7.03733C30.962 7.08711 30.738 7.112 30.5246 7.112ZM34.4464 7H32.841L33.337 0.749333H35.8384L36.3077 2.84533L36.521 3.90667L36.7237 2.85067L37.1397 0.749333H39.369L39.8277 7H38.169L37.897 3.32533L37.833 1.97067L37.017 6.376H35.625L34.6437 1.97067L34.6117 3.32533L34.4464 7ZM42.9615 6.29067C42.9402 6.34044 42.8957 6.40622 42.8282 6.488C42.7642 6.56978 42.6788 6.66044 42.5722 6.76C42.4655 6.856 42.3339 6.93778 42.1775 7.00533C42.0211 7.07644 41.8628 7.112 41.7028 7.112C41.2015 7.112 40.8424 6.96267 40.6255 6.664C40.4122 6.36533 40.3055 5.86756 40.3055 5.17067V3.272L40.1188 3.08V2.46667H42.0548V5.50667C42.0513 5.66667 42.0779 5.78578 42.1348 5.864C42.1917 5.93867 42.2948 5.976 42.4442 5.976C42.4655 5.976 42.4851 5.976 42.5028 5.976C42.5206 5.97244 42.5384 5.96889 42.5562 5.96533C42.5739 5.95822 42.5882 5.95289 42.5988 5.94933C42.6131 5.94578 42.6291 5.94044 42.6468 5.93333C42.6646 5.92267 42.6788 5.91378 42.6895 5.90667C42.7002 5.89956 42.7144 5.89067 42.7322 5.88C42.7499 5.86578 42.7624 5.85511 42.7695 5.848C42.7802 5.84089 42.7944 5.83022 42.8122 5.816C42.8335 5.79822 42.8495 5.78578 42.8602 5.77867V3.272L42.5722 3.08V2.46667H44.6042V7H43.1268L42.9615 6.29067ZM45.2205 7C45.2099 6.87911 45.1814 6.72267 45.1352 6.53067C45.089 6.33511 45.0445 6.17867 45.0019 6.06133L46.9005 3.62933L47.4979 3.18667C47.3379 3.18667 47.1921 3.19556 47.0605 3.21333C46.9325 3.22756 46.8241 3.24533 46.7352 3.26667C46.6463 3.288 46.5645 3.32178 46.4899 3.368C46.4152 3.41067 46.3583 3.448 46.3192 3.48C46.2801 3.50844 46.241 3.55289 46.2019 3.61333C46.1628 3.67378 46.1361 3.72 46.1219 3.752C46.1112 3.78044 46.0934 3.82844 46.0685 3.896C46.0437 3.96356 46.0277 4.008 46.0205 4.02933H45.2845V2.46667H48.8525C48.8703 2.58756 48.9005 2.72622 48.9432 2.88267C48.9894 3.03911 49.041 3.18667 49.0979 3.32533L47.5139 5.672L46.8579 6.15733C47.1992 6.15733 47.4677 6.14311 47.6632 6.11467C47.9583 6.072 48.1503 5.97778 48.2392 5.832C48.2748 5.77511 48.3245 5.62756 48.3885 5.38933H49.0125V7H45.2205Z" fill="#8FBC8F"/>
<path fill-rule="evenodd" clip-rule="evenodd" d="M56 0.489166C56 0.359431 55.9473 0.23501 55.8536 0.143273C55.7598 0.051537 55.6326 0 55.5 0C55.3674 0 55.2402 0.051537 55.1464 0.143273C55.0527 0.23501 55 0.359431 55 0.489166V8.51083C55 8.64057 55.0527 8.76499 55.1464 8.85673C55.2402 8.94846 55.3674 9 55.5 9C55.6326 9 55.7598 8.94846 55.8536 8.85673C55.9473 8.76499 56 8.64057 56 8.51083V0.489166ZM53.5 1.5425C53.6326 1.5425 53.7598 1.59404 53.8536 1.68578C53.9473 1.77751 54 1.90193 54 2.03167V6.96768C54 7.09741 53.9473 7.22184 53.8536 7.31357C53.7598 7.40531 53.6326 7.45685 53.5 7.45685C53.3674 7.45685 53.2402 7.40531 53.1464 7.31357C53.0527 7.22184 53 7.09741 53 6.96768V2.03167C53 1.90193 53.0527 1.77751 53.1464 1.68578C53.2402 1.59404 53.3674 1.5425 53.5 1.5425ZM51.5 3.08501C51.6326 3.08501 51.7598 3.13654 51.8536 3.22828C51.9473 3.32002 52 3.44444 52 3.57417V5.42583C52 5.55556 51.9473 5.67998 51.8536 5.77172C51.7598 5.86346 51.6326 5.91499 51.5 5.91499C51.3674 5.91499 51.2402 5.86346 51.1464 5.77172C51.0527 5.67998 51 5.55556 51 5.42583V3.57417C51 3.44444 51.0527 3.32002 51.1464 3.22828C51.2402 3.13654 51.3674 3.08501 51.5 3.08501ZM57.5 1.5425C57.6326 1.5425 57.7598 1.59404 57.8536 1.68578C57.9473 1.77751 58 1.90193 58 2.03167V6.96768C58 7.09741 57.9473 7.22184 57.8536 7.31357C57.7598 7.40531 57.6326 7.45685 57.5 7.45685C57.3674 7.45685 57.2402 7.40531 57.1464 7.31357C57.0527 7.22184 57 7.09741 57 6.96768V2.03167C57 1.90193 57.0527 1.77751 57.1464 1.68578C57.2402 1.59404 57.3674 1.5425 57.5 1.5425ZM60 3.57417C60 3.44444 59.9473 3.32002 59.8536 3.22828C59.7598 3.13654 59.6326 3.08501 59.5 3.08501C59.3674 3.08501 59.2402 3.13654 59.1464 3.22828C59.0527 3.32002 59 3.44444 59 3.57417V5.42583C59 5.55556 59.0527 5.67998 59.1464 5.77172C59.2402 5.86346 59.3674 5.91499 59.5 5.91499C59.6326 5.91499 59.7598 5.86346 59.8536 5.77172C59.9473 5.67998 60 5.55556 60 5.42583V3.57417Z" fill="#8FBC8F"/>
</svg>
